<svg id="Layer_1" data-name="Layer 1" xmlns="http://www.w3.org/2000/svg" viewBox="0 0 512 512"><defs><style>.cls-1{fill:#fff;}</style></defs><path class="cls-1" d="M-322.71,379.92a254.35,254.35,0,0,1-181-75,254.33,254.33,0,0,1-75-181,254.33,254.33,0,0,1,75-181,254.35,254.35,0,0,1,181-75,256,256,0,0,1,77.49,11.94,7.61,7.61,0,0,1,4.95,9.55,7.61,7.61,0,0,1-9.55,4.94,241,241,0,0,0-72.89-11.22A239.21,239.21,0,0,0-493-46.35,239.22,239.22,0,0,0-563.5,123.92,239.22,239.22,0,0,0-493,294.19a239.21,239.21,0,0,0,170.26,70.52,239.22,239.22,0,0,0,170.27-70.52A239.22,239.22,0,0,0-81.91,123.92,239.92,239.92,0,0,0-120.3-6.56a241.32,241.32,0,0,0-99.53-87.29A7.6,7.6,0,0,1-223.45-104a7.59,7.59,0,0,1,10.12-3.62A256.51,256.51,0,0,1-107.52-14.81,255.06,255.06,0,0,1-66.71,123.92a254.33,254.33,0,0,1-75,181A254.33,254.33,0,0,1-322.71,379.92Z" transform="translate(578.71 132.08)"/><path class="cls-1" d="M-322.71,324.54c-110.62,0-200.62-90-200.62-200.62s90-200.62,200.62-200.62,200.62,90,200.62,200.62S-212.08,324.54-322.71,324.54Zm0-386c-102.23,0-185.41,83.17-185.41,185.41s83.18,185.41,185.41,185.41,185.42-83.17,185.42-185.41S-220.47-61.49-322.71-61.49Z" transform="translate(578.71 132.08)"/><path class="cls-1" d="M-322.14,263.05a27.8,27.8,0,0,1-18.95-7.43l-38.25-35.45v15a27.92,27.92,0,0,1-27.88,27.88,27.92,27.92,0,0,1-27.88-27.88V208a7.61,7.61,0,0,1,7.6-7.61,7.61,7.61,0,0,1,7.61,7.61v27.17a12.68,12.68,0,0,0,12.67,12.67,12.68,12.68,0,0,0,12.67-12.67V202.75a7.61,7.61,0,0,1,4.56-7,7.63,7.63,0,0,1,8.22,1.39l51,47.29a12.63,12.63,0,0,0,8.61,3.38,12.55,12.55,0,0,0,9.3-4.06,12.69,12.69,0,0,0-.68-17.91l-68.84-63.8a7.6,7.6,0,0,1-2.44-5.63,7.59,7.59,0,0,1,2.5-5.59L-322,96.26a12.69,12.69,0,0,0,.89-17.9,12.69,12.69,0,0,0-17.9-.89l-42.87,38.79a7.62,7.62,0,0,1-8.19,1.31,7.62,7.62,0,0,1-4.52-6.95V10.11A12.68,12.68,0,0,0-407.22-2.56a12.68,12.68,0,0,0-12.67,12.67V177.58a7.61,7.61,0,0,1-7.61,7.6,7.6,7.6,0,0,1-7.6-7.6V10.11a27.92,27.92,0,0,1,27.88-27.88,27.92,27.92,0,0,1,27.88,27.88V93.48l30.17-27.29a27.92,27.92,0,0,1,39.38,2,27.92,27.92,0,0,1-2,39.38l-54.18,49,62.76,58.16a27.92,27.92,0,0,1,1.49,39.4A28,28,0,0,1-322.14,263.05Z" transform="translate(578.71 132.08)"/><path class="cls-1" d="M-255.15,263.05A27.92,27.92,0,0,1-283,235.17V86.87A27.92,27.92,0,0,1-255.15,59a27.87,27.87,0,0,1,22.87,11.94,71.57,71.57,0,0,1,21.19-3.18,71.45,71.45,0,0,1,50.86,21.07h0a27.66,27.66,0,0,1,8.17,19.71,27.7,27.7,0,0,1-8.17,19.72,27.73,27.73,0,0,1-19.72,8.16h0a27.69,27.69,0,0,1-19.71-8.17,16.06,16.06,0,0,0-11.43-4.73,16.18,16.18,0,0,0-16.17,16.17v95.5A27.92,27.92,0,0,1-255.15,263.05Zm0-188.86a12.69,12.69,0,0,0-12.67,12.68v148.3a12.69,12.69,0,0,0,12.67,12.67,12.69,12.69,0,0,0,12.68-12.67v-95.5a31.41,31.41,0,0,1,31.38-31.38,31.17,31.17,0,0,1,22.18,9.19,12.58,12.58,0,0,0,9,3.71,12.58,12.58,0,0,0,9-3.71,12.59,12.59,0,0,0,3.71-9,12.6,12.6,0,0,0-3.71-9h0A56.38,56.38,0,0,0-211.09,83,56.31,56.31,0,0,0-233,87.35a7.58,7.58,0,0,1-6.07-.07,7.6,7.6,0,0,1-4.08-4.49A12.68,12.68,0,0,0-255.15,74.19Z" transform="translate(578.71 132.08)"/></svg>